<svg xmlns="http://www.w3.org/2000/svg" viewBox="0 0 262.87 261.75"><title>Tesla logo</title><path d="M512,642.87l36.77-206.82c35.05,0,46.1,3.84,47.71,19.53,0,0,23.52-8.76,35.38-26.57-46.28-21.45-92.78-22.41-92.78-22.41l-27.13,33H512l-27.14-33s-46.51,1-92.78,22.42c11.85,17.81,35.38,26.57,35.38,26.57,1.6-15.69,12.65-19.53,47.47-19.56Z" transform="translate(-380.57 -381.13)" style="fill:#e31937"/><path d="M512,397c37.41-.29,80.23,5.79,124.07,24.89,5.86-10.55,7.36-15.21,7.36-15.21a350.05,350.05,0,0,0-262.87,0,127,127,0,0,0,7.36,15.21C431.76,402.84,474.58,396.76,512,397Z" transform="translate(-380.57 -381.13)" style="fill:#e31937"/></svg>