<svg width="36" height="36" viewBox="0 0 36 36" fill="none" xmlns="http://www.w3.org/2000/svg">
<path d="M4.10701 0.704647C3.16746 -0.234882 1.64419 -0.234882 0.704642 0.704647C-0.234881 1.6442 -0.234881 3.16748 0.704642 4.10703L14.5976 18L0.704787 31.8931C-0.234736 32.8325 -0.234736 34.3559 0.704787 35.2954C1.64433 36.2349 3.1676 36.2349 4.10713 35.2954L17.9999 21.4024L31.8928 35.2954C32.8323 36.2349 34.3557 36.2349 35.2952 35.2954C36.2346 34.3559 36.2346 32.8325 35.2952 31.8931L21.4022 18L35.2954 4.10703C36.2349 3.16748 36.2349 1.6442 35.2954 0.704647C34.3559 -0.234882 32.8326 -0.234882 31.8931 0.704647L17.9999 14.5977L4.10701 0.704647Z" fill="black"/>
</svg>
